# This file uses centimeters as units for non-parametric coordinates.

mtllib Missile_2.mtl
g default
v 0.346410 0.200000 -4.950274
v 0.136808 0.375877 -4.950274
v -0.136808 0.375877 -4.950274
v -0.346410 0.200000 -4.950274
v -0.393923 -0.069459 -4.950274
v -0.257115 -0.306418 -4.950274
v -0.000000 -0.400000 -4.950274
v 0.257115 -0.306418 -4.950274
v 0.393923 -0.069459 -4.950274
v 0.346410 0.200000 -3.783607
v 0.136808 0.375877 -3.783607
v -0.136808 0.375877 -3.783607
v -0.346410 0.200000 -3.783607
v -0.393923 -0.069459 -3.783607
v -0.257115 -0.306418 -3.783607
v -0.000000 -0.400000 -3.783607
v 0.257115 -0.306418 -3.783607
v 0.393923 -0.069459 -3.783607
v 0.346410 0.200000 -0.678123
v 0.136808 0.375877 -0.678123
v -0.136808 0.375877 -0.678123
v -0.346410 0.200000 -0.678123
v -0.393923 -0.069459 -0.678123
v -0.257115 -0.306418 -0.678123
v -0.000000 -0.400000 -0.678123
v 0.257115 -0.306418 -0.678123
v 0.393923 -0.069459 -0.678123
v 0.248967 0.140348 -0.326426
v 0.098325 0.266752 -0.326426
v -0.098325 0.266752 -0.326426
v -0.248967 0.140348 -0.326426
v -0.283114 -0.053314 -0.326426
v -0.184790 -0.223617 -0.326426
v -0.000000 -0.290875 -0.326426
v 0.184790 -0.223617 -0.326426
v 0.283114 -0.053314 -0.326426
v 0.289764 0.167296 -5.303727
v 0.114437 0.314413 -5.303727
v -0.114437 0.314413 -5.303727
v -0.289765 0.167296 -5.303727
v -0.329508 -0.058101 -5.303727
v -0.215071 -0.256312 -5.303727
v -0.000000 -0.334591 -5.303727
v 0.215071 -0.256312 -5.303727
v 0.329508 -0.058101 -5.303727
v 0.218690 0.126261 -5.303727
v 0.086367 0.237293 -5.303727
v -0.086368 0.237293 -5.303727
v -0.218690 0.126261 -5.303727
v -0.248686 -0.043850 -5.303727
v -0.162318 -0.193443 -5.303727
v -0.000000 -0.252522 -5.303727
v 0.162318 -0.193443 -5.303727
v 0.248686 -0.043850 -5.303727
v 0.218691 0.126261 -4.594463
v 0.086367 0.237293 -4.594463
v -0.000000 -0.000000 -4.594463
v -0.086368 0.237293 -4.594463
v -0.218691 0.126261 -4.594463
v -0.248686 -0.043850 -4.594463
v -0.162320 -0.193443 -4.594463
v -0.000001 -0.252522 -4.594463
v 0.162319 -0.193443 -4.594463
v 0.248686 -0.043850 -4.594463
v 0.152740 0.084791 -0.126175
v 0.060322 0.162339 -0.126175
v 0.000000 -0.003393 0.091801
v -0.060322 0.162339 -0.126175
v -0.152740 0.084791 -0.126175
v -0.173689 -0.034019 -0.126175
v -0.113367 -0.138499 -0.126175
v -0.000000 -0.179761 -0.126175
v 0.113367 -0.138499 -0.126175
v 0.173689 -0.034019 -0.126175
v 0.028898 0.804293 -5.805220
v -0.028898 0.804293 -5.805220
v -0.028898 0.804293 -4.790673
v 0.028898 0.804293 -4.790673
v -0.687387 -0.336243 -5.805220
v -0.658489 -0.386296 -5.805220
v -0.658489 -0.386296 -4.790673
v -0.687387 -0.336243 -4.790673
v 0.658489 -0.386296 -5.805220
v 0.687386 -0.336243 -5.805220
v 0.687386 -0.336243 -4.790673
v 0.658489 -0.386296 -4.790673
vt 0.657622 0.935010
vt 0.550822 0.935014
vt 0.550780 0.789352
vt 0.657598 0.789350
vt 0.444669 0.935018
vt 0.337796 0.935022
vt 0.337773 0.789358
vt 0.444628 0.789355
vt 0.229089 0.935022
vt 0.229096 0.789358
vt 0.950038 0.029928
vt 0.950037 0.162584
vt 0.118173 0.935020
vt 0.646180 0.162584
vt 0.646180 0.029928
vt 0.989383 0.935016
vt 0.950038 0.030078
vt 0.950037 0.162580
vt 0.989430 0.789354
vt 0.646180 0.162581
vt 0.646180 0.030078
vt 0.877009 0.935012
vt 0.950038 0.029973
vt 0.950037 0.162583
vt 0.877044 0.789351
vt 0.646180 0.162583
vt 0.646180 0.029973
vt 0.766208 0.935009
vt 0.766214 0.789349
vt 0.550669 0.460620
vt 0.657535 0.460618
vt 0.444516 0.460623
vt 0.337711 0.460626
vt 0.229114 0.460626
vt 0.118302 0.460625
vt 0.989556 0.460621
vt 0.877137 0.460619
vt 0.766231 0.460617
vt 0.550624 0.383312
vt 0.657509 0.383310
vt 0.444472 0.383314
vt 0.337686 0.383316
vt 0.229121 0.383316
vt 0.118340 0.383315
vt 0.989606 0.383313
vt 0.877175 0.383311
vt 0.766238 0.383310
vt 0.654984 0.339665
vt 0.549594 0.339666
vt 0.492795 0.263786
vt 0.445333 0.339667
vt 0.340110 0.339668
vt 0.232097 0.339669
vt 0.989709 0.339667
vt 0.875217 0.339665
vt 0.763282 0.339665
vt 0.097855 0.181916
vt 0.656867 0.994933
vt 0.136288 0.214799
vt 0.072879 0.252318
vt 0.047735 0.181976
vt 0.009381 0.214949
vt 0.000738 0.265408
vt 0.025850 0.309741
vt 0.072968 0.327206
vt 0.120044 0.309630
vt 0.145051 0.265237
vt 0.954750 0.198130
vt 0.989223 0.227875
vt 0.957963 0.246792
vt 0.942317 0.233292
vt 0.909634 0.197996
vt 0.921840 0.233231
vt 0.874984 0.227534
vt 0.906113 0.246637
vt 0.867013 0.272923
vt 0.902496 0.267237
vt 0.889453 0.312926
vt 0.912680 0.285393
vt 0.931801 0.328825
vt 0.931901 0.292609
vt 0.974244 0.313179
vt 0.951164 0.285508
vt 0.996922 0.273311
vt 0.961457 0.267414
vt 0.550557 0.994936
vt 0.444997 0.994939
vt 0.338587 0.994942
vt 0.230002 0.994943
vt 0.989347 0.994937
vt 0.876359 0.994934
vt 0.765286 0.994932
vt 0.999141 0.000969
vt 0.999140 0.193840
vt 0.592889 0.193840
vt 0.592889 0.000969
vt 0.999140 0.000854
vt 0.999140 0.193554
vt 0.592889 0.193554
vt 0.592889 0.000854
vt 0.999140 0.000526
vt 0.999140 0.193477
vt 0.592889 0.193477
vt 0.592889 0.000526
vt 0.005751 0.935016
vt 0.118208 0.789357
vt 0.005798 0.789354
vt 0.005924 0.460621
vt 0.120447 0.339668
vt 0.006077 0.339667
vt 0.118770 0.994941
vt 0.005715 0.994938
vt 0.005974 0.383313
vt 0.127512 0.000197
vt 0.127526 0.179301
vt 0.587900 0.000205
vt 0.587924 0.179309
vt 0.524080 0.000208
vt 0.524094 0.179312
vt 0.459182 0.000209
vt 0.459178 0.179313
vt 0.392961 0.000207
vt 0.392942 0.179311
vt 0.325817 0.000203
vt 0.325790 0.179306
vt 0.258665 0.000199
vt 0.258645 0.179302
vt 0.192428 0.000197
vt 0.192425 0.179300
vt 0.000265 0.000205
vt 0.063682 0.000201
vt 0.063706 0.179304
vt 0.000289 0.179309
vn 0.866026 0.500000 0.000000
vn 0.642788 0.766044 0.000000
vn 0.395451 0.918487 0.000000
vn 0.866026 0.500000 0.000000
vn -0.000001 1.000000 0.000000
vn -0.000001 1.000000 0.000000
vn -0.000001 1.000000 0.000000
vn -0.000001 1.000000 0.000000
vn -0.642787 0.766045 0.000000
vn -0.866025 0.500000 0.000000
vn -0.866025 0.500000 -0.000000
vn -0.395451 0.918487 0.000000
vn -0.984808 0.173648 0.000000
vn -0.993159 -0.116773 -0.000000
vn -0.866025 -0.500000 0.000000
vn -0.866025 -0.500000 0.000000
vn -0.866025 -0.500000 0.000000
vn -0.866025 -0.500000 0.000000
vn -0.342020 -0.939693 0.000000
vn 0.000000 -1.000000 0.000000
vn 0.000000 -1.000000 0.000000
vn -0.597708 -0.801714 -0.000000
vn 0.342021 -0.939692 0.000000
vn 0.597708 -0.801714 0.000000
vn 0.866026 -0.499999 0.000000
vn 0.866026 -0.499999 0.000000
vn 0.866026 -0.499999 0.000000
vn 0.866026 -0.499999 0.000000
vn 0.984808 0.173648 0.000000
vn 0.993159 -0.116773 0.000000
vn 0.341835 0.939362 0.027345
vn 0.865632 0.499952 0.027015
vn -0.341835 0.939362 0.027345
vn -0.865632 0.499952 0.027015
vn -0.984492 -0.173413 0.026507
vn -0.642658 -0.765710 0.026058
vn 0.000000 -0.999665 0.025880
vn 0.642658 -0.765710 0.026058
vn 0.984492 -0.173414 0.026507
vn 0.319721 0.877101 0.358431
vn 0.809919 0.466276 0.355834
vn -0.319721 0.877101 0.358431
vn -0.809919 0.466276 0.355834
vn -0.921606 -0.163841 0.351850
vn -0.601868 -0.718619 0.348341
vn 0.000000 -0.937882 0.346954
vn 0.601868 -0.718619 0.348341
vn 0.921606 -0.163841 0.351850
vn -0.338788 -0.930813 -0.137150
vn -0.622070 -0.741357 -0.251830
vn -0.000000 0.000000 -1.000000
vn 0.338788 -0.930813 -0.137149
vn 0.857842 -0.495275 -0.137149
vn 0.975502 0.172006 -0.137149
vn 0.636714 0.758806 -0.137149
vn 0.000000 0.990550 -0.137150
vn -0.330997 0.909408 -0.251829
vn 0.000001 0.000000 -1.000000
vn 0.737067 0.425546 0.525017
vn 0.291090 0.799765 0.525017
vn 0.000000 0.000000 1.000000
vn -0.291090 0.799764 0.525017
vn -0.737067 0.425546 0.525017
vn -0.838161 -0.147791 0.525017
vn -0.547071 -0.651974 0.525017
vn 0.000000 -0.851092 0.525017
vn 0.547071 -0.651974 0.525017
vn 0.838162 -0.147791 0.525017
vn 0.633283 0.754718 -0.171325
vn 0.633283 0.754718 -0.171325
vn 0.633283 0.754718 -0.171325
vn 0.633283 0.754718 -0.171325
vn -0.000000 0.985215 -0.171324
vn -0.000000 0.985215 -0.171324
vn -0.000000 0.985215 -0.171324
vn -0.000000 0.985215 -0.171324
vn -0.633283 0.754719 -0.171325
vn -0.633283 0.754719 -0.171325
vn -0.633283 0.754719 -0.171325
vn -0.633283 0.754719 -0.171325
vn -0.970247 0.171081 -0.171325
vn -0.970247 0.171081 -0.171325
vn -0.970247 0.171081 -0.171325
vn -0.970247 0.171081 -0.171325
vn -0.853221 -0.492607 -0.171325
vn -0.853221 -0.492607 -0.171325
vn -0.853221 -0.492607 -0.171325
vn -0.853221 -0.492607 -0.171325
vn -0.336963 -0.925799 -0.171325
vn -0.336963 -0.925799 -0.171325
vn -0.336963 -0.925799 -0.171325
vn -0.336963 -0.925799 -0.171325
vn 0.336963 -0.925799 -0.171325
vn 0.336963 -0.925799 -0.171325
vn 0.336963 -0.925799 -0.171325
vn 0.336963 -0.925799 -0.171325
vn 0.853221 -0.492608 -0.171325
vn 0.853221 -0.492608 -0.171325
vn 0.853221 -0.492608 -0.171325
vn 0.853221 -0.492608 -0.171325
vn 0.970247 0.171081 -0.171325
vn 0.970247 0.171081 -0.171325
vn 0.970247 0.171081 -0.171325
vn 0.970247 0.171081 -0.171325
vn 0.000000 0.000000 -1.000000
vn 0.000000 0.000000 -1.000000
vn 0.000000 0.000000 -1.000000
vn 0.000000 0.000000 -1.000000
vn 0.000002 0.000000 -1.000000
vn 0.000002 0.000000 -1.000000
vn 0.000002 0.000000 -1.000000
vn 0.000002 0.000000 -1.000000
vn -0.000004 0.000000 -1.000000
vn -0.000004 0.000000 -1.000000
vn -0.000004 0.000000 -1.000000
vn -0.000004 0.000000 -1.000000
vn 0.000004 0.000000 -1.000000
vn 0.000004 0.000000 -1.000000
vn 0.000004 0.000000 -1.000000
vn 0.000004 0.000000 -1.000000
vn 0.000004 0.000000 -1.000000
vn 0.000004 0.000000 -1.000000
vn 0.000004 0.000000 -1.000000
vn 0.000004 0.000000 -1.000000
vn -0.000002 0.000000 -1.000000
vn -0.000002 0.000000 -1.000000
vn -0.000002 0.000000 -1.000000
vn -0.000002 0.000000 -1.000000
vn 0.000002 0.000000 -1.000000
vn 0.000002 0.000000 -1.000000
vn 0.000002 0.000000 -1.000000
vn 0.000002 0.000000 -1.000000
vn 0.000000 0.000000 -1.000000
vn 0.000000 0.000000 -1.000000
vn 0.000000 0.000000 -1.000000
vn 0.000000 0.000000 -1.000000
vn 0.000004 0.000000 -1.000000
vn 0.000004 0.000000 -1.000000
vn 0.000004 0.000000 -1.000000
vn 0.000004 0.000000 -1.000000
vn -0.342019 -0.939693 0.000000
vn -0.642787 -0.766045 0.000000
vn 0.342020 -0.939693 0.000000
vn 0.866025 -0.500000 0.000001
vn 0.984808 0.173647 0.000001
vn 0.642787 0.766045 0.000001
vn -0.000000 1.000000 0.000000
vn -0.342019 0.939693 0.000000
vn -0.866026 0.500000 0.000001
vn -0.866026 0.500000 0.000001
vn -0.866026 0.500000 0.000001
vn -0.866026 0.500000 0.000001
vn -0.984808 -0.173649 0.000001
vn -0.984808 -0.173649 0.000001
vn -0.984808 -0.173649 0.000001
vn -0.984808 -0.173649 0.000001
vn 0.000000 -0.894033 -0.448002
vn 0.000000 -0.894033 -0.448002
vn 0.000000 -0.894033 -0.448002
vn 0.000000 -0.894033 -0.448002
vn -0.969712 0.244253 0.000000
vn -0.969712 0.244253 0.000000
vn -0.969712 0.244253 0.000000
vn -0.969712 0.244253 0.000000
vn -0.000001 0.920195 0.391460
vn -0.000001 0.920195 0.391460
vn -0.000001 0.920195 0.391460
vn -0.000001 0.920195 0.391460
vn 0.969711 0.244253 0.000000
vn 0.969712 0.244253 0.000000
vn 0.969712 0.244253 0.000000
vn 0.969712 0.244253 0.000000
vn 0.788773 0.455398 -0.412855
vn 0.788773 0.455398 -0.412855
vn 0.788773 0.455398 -0.412855
vn 0.788773 0.455398 -0.412855
vn 0.195184 -0.980767 0.000000
vn 0.195184 -0.980767 0.000000
vn 0.195184 -0.980767 0.000000
vn 0.195184 -0.980767 0.000000
vn -0.808246 -0.466641 0.359145
vn -0.808246 -0.466641 0.359145
vn -0.808246 -0.466641 0.359145
vn -0.808246 -0.466641 0.359145
vn -0.672671 0.739941 0.000000
vn -0.672671 0.739941 0.000000
vn -0.672671 0.739941 0.000000
vn -0.672671 0.739941 0.000000
vn -0.788773 0.455399 -0.412856
vn -0.788773 0.455399 -0.412856
vn -0.788773 0.455399 -0.412856
vn -0.788773 0.455399 -0.412856
vn 0.672672 0.739941 0.000000
vn 0.672672 0.739941 0.000000
vn 0.672672 0.739941 0.000000
vn 0.672672 0.739941 0.000000
vn 0.808245 -0.466641 0.359145
vn 0.808245 -0.466641 0.359145
vn 0.808245 -0.466641 0.359145
vn 0.808245 -0.466641 0.359145
vn -0.195184 -0.980767 0.000000
vn -0.195184 -0.980767 0.000000
vn -0.195184 -0.980767 0.000000
vn -0.195184 -0.980767 0.000000
s 1
g pCylinder1
usemtl initialShadingGroup
f 1/1/1 2/2/2 11/3/3 10/4/4
s off
f 75/11/5 76/12/6 77/14/7 78/15/8
s 1
f 3/5/9 4/6/10 13/7/11 12/8/12
f 4/6/10 5/9/13 14/10/14 13/7/11
s off
f 79/17/15 80/18/16 81/20/17 82/21/18
s 1
f 6/13/19 7/105/20 16/107/21 15/106/22
f 7/16/20 8/22/23 17/25/24 16/19/21
s off
f 83/23/25 84/24/26 85/26/27 86/27/28
s 1
f 9/28/29 1/1/1 10/4/4 18/29/30
f 10/4/4 11/3/3 20/30/31 19/31/32
f 11/3/3 12/8/12 21/32/33 20/30/31
f 12/8/12 13/7/11 22/33/34 21/32/33
f 13/7/11 14/10/14 23/34/35 22/33/34
f 14/10/14 15/106/22 24/35/36 23/34/35
f 15/106/22 16/107/21 25/108/37 24/35/36
f 16/19/21 17/25/24 26/37/38 25/36/37
f 17/25/24 18/29/30 27/38/39 26/37/38
f 18/29/30 10/4/4 19/31/32 27/38/39
f 19/31/32 20/30/31 29/39/40 28/40/41
f 20/30/31 21/32/33 30/41/42 29/39/40
f 21/32/33 22/33/34 31/42/43 30/41/42
f 22/33/34 23/34/35 32/43/44 31/42/43
f 23/34/35 24/35/36 33/44/45 32/43/44
f 24/35/36 25/108/37 34/113/46 33/44/45
f 25/36/37 26/37/38 35/46/47 34/45/46
f 26/37/38 27/38/39 36/47/48 35/46/47
f 27/38/39 19/31/32 28/40/41 36/47/48
s 4
f 56/57/49 55/59/50 57/60/51
f 58/61/52 56/57/49 57/60/51
f 59/62/53 58/61/52 57/60/51
f 60/63/54 59/62/53 57/60/51
f 61/64/55 60/63/54 57/60/51
f 62/65/56 61/64/55 57/60/51
f 63/66/57 62/65/56 57/60/51
f 64/67/58 63/66/57 57/60/51
f 55/59/50 64/67/58 57/60/51
s 1
f 65/48/59 66/49/60 67/50/61
f 66/49/60 68/51/62 67/50/61
f 68/51/62 69/52/63 67/50/61
f 69/52/63 70/53/64 67/50/61
f 70/53/64 71/109/65 67/50/61
f 71/109/65 72/110/66 67/50/61
f 72/54/66 73/55/67 67/50/61
f 73/55/67 74/56/68 67/50/61
f 74/56/68 65/48/59 67/50/61
s off
f 2/2/69 1/1/70 37/58/71 38/86/72
f 3/5/73 2/2/74 38/86/75 39/87/76
f 4/6/77 3/5/78 39/87/79 40/88/80
f 5/9/81 4/6/82 40/88/83 41/89/84
f 6/13/85 5/9/86 41/89/87 42/111/88
f 7/105/89 6/13/90 42/111/91 43/112/92
f 8/22/93 7/16/94 43/90/95 44/91/96
f 9/28/97 8/22/98 44/91/99 45/92/100
f 1/1/101 9/28/102 45/92/103 37/58/104
f 38/68/105 37/69/106 46/70/107 47/71/108
f 39/72/109 38/68/110 47/71/111 48/73/112
f 40/74/113 39/72/114 48/73/115 49/75/116
f 41/76/117 40/74/118 49/75/119 50/77/120
f 42/78/121 41/76/122 50/77/123 51/79/124
f 43/80/125 42/78/126 51/79/127 52/81/128
f 44/82/129 43/80/130 52/81/131 53/83/132
f 45/84/133 44/82/134 53/83/135 54/85/136
f 37/69/137 45/84/138 54/85/139 46/70/140
s 4
f 47/131/141 46/114/142 55/115/50 56/132/49
f 48/130/143 47/131/141 56/132/49 58/133/52
f 49/118/144 48/116/143 58/117/52 59/119/53
f 50/120/145 49/118/144 59/119/53 60/121/54
f 51/122/146 50/120/145 60/121/54 61/123/55
f 52/124/147 51/122/146 61/123/55 62/125/56
f 53/126/148 52/124/147 62/125/56 63/127/57
s off
f 54/128/149 53/126/150 63/127/151 64/129/152
f 46/114/153 54/128/154 64/129/155 55/115/156
s 1
f 28/40/41 29/39/40 66/49/60 65/48/59
f 29/39/40 30/41/42 68/51/62 66/49/60
f 30/41/42 31/42/43 69/52/63 68/51/62
f 31/42/43 32/43/44 70/53/64 69/52/63
f 32/43/44 33/44/45 71/109/65 70/53/64
f 33/44/45 34/113/46 72/110/66 71/109/65
f 34/45/46 35/46/47 73/55/67 72/54/66
f 35/46/47 36/47/48 74/56/68 73/55/67
f 36/47/48 28/40/41 65/48/59 74/56/68
s off
f 2/93/157 3/94/158 76/12/159 75/11/160
f 3/94/161 12/95/162 77/14/163 76/12/164
f 12/95/165 11/96/166 78/15/167 77/14/168
f 11/96/169 2/93/170 75/11/171 78/15/172
f 5/97/173 6/98/174 80/18/175 79/17/176
f 6/98/177 15/99/178 81/20/179 80/18/180
f 15/99/181 14/100/182 82/21/183 81/20/184
f 14/100/185 5/97/186 79/17/187 82/21/188
f 8/101/189 9/102/190 84/24/191 83/23/192
f 9/102/193 18/103/194 85/26/195 84/24/196
f 18/103/197 17/104/198 86/27/199 85/26/200
f 17/104/201 8/101/202 83/23/203 86/27/204
